<svg width="19" height="18" viewBox="0 0 19 18" fill="none" xmlns="http://www.w3.org/2000/svg">
<g clip-path="url(#clip0_1200_2678)">
<path d="M8.95781 0.463131C8.80678 0.47074 8.6588 0.508187 8.52255 0.573278L2.58301 3.41125C2.42928 3.48467 2.29421 3.59149 2.18781 3.72379C2.08142 3.85609 2.00645 4.01046 1.96847 4.17544L0.503145 10.5502C0.469308 10.6971 0.465521 10.8492 0.492009 10.9976C0.518496 11.1459 0.574719 11.2875 0.65735 11.4139C0.677386 11.4448 0.698934 11.4748 0.721917 11.5036L4.83303 16.6151C4.93944 16.7474 5.07453 16.8542 5.22827 16.9276C5.382 17.0009 5.55042 17.039 5.72104 17.039L12.3139 17.0375C12.4844 17.0376 12.6528 16.9996 12.8065 16.9264C12.9602 16.8531 13.0954 16.7465 13.2019 16.6144L17.3115 11.5021C17.4179 11.3697 17.4929 11.2153 17.531 11.0503C17.569 10.8852 17.569 10.7138 17.531 10.5487L16.0634 4.17392C16.0254 4.00894 15.9504 3.85457 15.844 3.72227C15.7376 3.58997 15.6026 3.48315 15.4488 3.40973L9.50855 0.573278C9.33717 0.491399 9.14779 0.453525 8.95781 0.463131Z" fill="#2871BD"/>
<path d="M8.95515 0.00157008C8.79589 0.00991231 8.63991 0.0496827 8.49634 0.118553L2.2256 3.11377C2.06332 3.19128 1.92073 3.30405 1.80842 3.44371C1.69611 3.58337 1.61697 3.74634 1.57688 3.9205L0.0302748 10.65C-0.00555339 10.8052 -0.00962675 10.9658 0.0182964 11.1226C0.0462195 11.2793 0.10557 11.4288 0.192834 11.5624C0.214062 11.5948 0.236877 11.6263 0.261197 11.6566L4.60096 17.053C4.71329 17.1926 4.8559 17.3053 5.01818 17.3827C5.18046 17.4602 5.35824 17.5004 5.53834 17.5004L12.4981 17.4989C12.6781 17.499 12.8558 17.4589 13.0181 17.3816C13.1804 17.3042 13.323 17.1917 13.4354 17.0522L17.7737 11.655C17.886 11.5154 17.9651 11.3525 18.0052 11.1784C18.0453 11.0043 18.0454 10.8234 18.0054 10.6493L16.4565 3.91898C16.4163 3.74495 16.3371 3.58214 16.2248 3.44262C16.1125 3.30309 15.97 3.19044 15.8078 3.11301L9.53703 0.117794C9.35596 0.0312968 9.15587 -0.008669 8.95515 0.00157008V0.00157008ZM8.95819 0.463424C9.14817 0.453818 9.33754 0.491693 9.50892 0.573571L15.4492 3.41002C15.6029 3.48344 15.738 3.59026 15.8444 3.72256C15.9508 3.85486 16.0258 4.00923 16.0638 4.17421L17.5314 10.549C17.5694 10.7141 17.5693 10.8855 17.5313 11.0505C17.4933 11.2156 17.4183 11.37 17.3118 11.5023L13.2022 16.6147C13.0957 16.7468 12.9606 16.8534 12.8069 16.9267C12.6532 16.9999 12.4848 17.0379 12.3142 17.0378L5.72141 17.0393C5.5508 17.0393 5.38238 17.0012 5.22864 16.9279C5.07491 16.8545 4.93982 16.7477 4.83341 16.6154L0.722296 11.5039C0.699312 11.4751 0.677764 11.4451 0.657729 11.4142C0.575098 11.2878 0.518875 11.1462 0.492388 10.9979C0.465901 10.8495 0.469688 10.6974 0.503524 10.5505L1.96885 4.17574C2.00683 4.01076 2.0818 3.85639 2.18819 3.72409C2.29458 3.59179 2.42966 3.48497 2.58339 3.41155L8.52293 0.573578C8.65917 0.508488 8.80716 0.47104 8.95819 0.463432L8.95819 0.463424Z" fill="white"/>
<path d="M8.99907 3.83595C8.86074 3.83155 5.00375 5.72772 4.95333 5.82497C4.83217 6.05865 3.95452 10.1064 4.00609 10.1937C4.03609 10.2443 4.66829 11.046 5.41066 11.9745L6.76045 13.6622L8.98203 13.6633L11.2036 13.6644L12.6164 11.8986L14.0303 10.1334L13.5357 7.96451C13.2635 6.77177 13.0201 5.77623 12.9952 5.75224C12.9257 5.68536 9.07405 3.8385 8.99907 3.83608V3.83595ZM9.23523 5.81877C9.42187 5.82677 9.44103 6.11034 9.84036 6.1402C10.362 6.1792 10.3059 5.69355 10.7049 6.03167C11.104 6.3698 10.616 6.39432 10.7401 6.90242C10.8641 7.41053 11.3089 7.20752 11.1106 7.69152C10.9123 8.17552 10.738 7.7188 10.2931 7.99383C9.84817 8.26885 10.1785 8.62918 9.65693 8.59018C9.13528 8.55118 9.51646 8.24411 9.11742 7.90598C8.71838 7.56785 8.47718 7.99344 8.35312 7.48533C8.22903 6.97722 8.63905 7.24432 8.83733 6.76031C9.03603 6.27627 8.55624 6.17906 9.00116 5.90403C9.0568 5.86969 9.10305 5.84715 9.14327 5.83375C9.17835 5.82208 9.2086 5.81761 9.23524 5.81878L9.23523 5.81877ZM9.75673 6.39083C9.68095 6.3903 9.60552 6.40104 9.53297 6.42287C9.13258 6.5436 8.90602 6.96619 9.02706 7.36648C9.148 7.7664 9.57017 7.99263 9.97017 7.87188C10.37 7.75113 10.5964 7.32926 10.4761 6.9293C10.3803 6.61148 10.0886 6.39314 9.75673 6.39083V6.39083ZM6.76408 7.69256C6.80377 7.69335 6.8524 7.70156 6.91238 7.71995C7.39231 7.86708 6.90468 8.11945 7.24673 8.48683C7.58879 8.8542 7.87525 8.38574 7.98778 8.87492C8.1003 9.36409 7.63779 9.06784 7.49065 9.54774C7.34349 10.0276 7.89213 10.0418 7.52476 10.3839C7.15739 10.7259 7.18295 10.1778 6.69381 10.2903C6.20462 10.4029 6.46677 10.885 5.98687 10.7379C5.50694 10.5907 5.99457 10.3384 5.65252 9.97098C5.31046 9.6036 5.024 10.0715 4.91147 9.58237C4.79895 9.09319 5.26146 9.38945 5.4086 8.90954C5.55576 8.42964 5.00662 8.41597 5.37399 8.07393C5.74136 7.73189 5.71628 8.28 6.20544 8.16747C6.63348 8.06901 6.48608 7.68787 6.76408 7.69257L6.76408 7.69256ZM10.3313 8.21707C10.3768 8.21761 10.4321 8.2295 10.5013 8.25634C11.0546 8.47108 10.3261 8.80224 10.7551 9.21236C11.184 9.62247 11.4825 8.87961 11.7219 9.42268C11.9613 9.96574 11.2115 9.68511 11.2248 10.2784C11.238 10.8718 11.9744 10.5572 11.7596 11.1104C11.5449 11.6637 11.2137 10.9352 10.8036 11.3642C10.3935 11.7931 11.1358 12.0911 10.5928 12.3305C10.0497 12.5699 10.3314 11.8206 9.73805 11.8339C9.14472 11.8472 9.45883 12.583 8.90554 12.3682C8.3523 12.1535 9.0808 11.8223 8.6518 11.4122C8.22283 11.0021 7.92483 11.745 7.68547 11.2019C7.4461 10.6588 8.19537 10.94 8.18209 10.3467C8.1686 9.75332 7.4325 10.0674 7.64723 9.51414C7.86197 8.96088 8.19362 9.68991 8.60376 9.26093C9.01386 8.83195 8.27099 8.53344 8.81407 8.29407C9.35713 8.05469 9.07598 8.80401 9.66931 8.79068C10.1885 8.77901 10.0127 8.21427 10.3313 8.21707V8.21707ZM6.44989 8.47235C6.0319 8.47219 5.69294 8.81092 5.69281 9.2289C5.69265 9.64708 6.03171 9.98611 6.44989 9.98596C6.86785 9.98581 7.20657 9.64686 7.20641 9.2289C7.20628 8.81113 6.86764 8.4725 6.44989 8.47235ZM9.70344 9.19737C9.08776 9.19741 8.58859 9.69636 8.58825 10.312C8.58801 10.9281 9.08736 11.4277 9.70344 11.4277C10.3197 11.4279 10.8193 10.9283 10.8191 10.312C10.8191 9.69617 10.3193 9.19715 9.70344 9.19737Z" fill="white"/>
<path d="M9 4L12.9092 5.88255L13.8746 10.1126L11.1694 13.5048H6.83058L4.12536 10.1126L5.09084 5.88255L9 4Z" fill="white"/>
<path d="M11.0244 8.49943C10.843 7.64866 10.0657 7.00028 9.10772 7.00028C8.75838 6.99425 8.41412 7.08449 8.11266 7.26113C7.81121 7.43778 7.56419 7.694 7.3987 8.00171C6.59591 8.10216 6 8.72805 6 9.50086C6 10.3254 6.69935 11 7.55386 11H10.9202C11.6458 11 12.2154 10.4491 12.2154 9.74746C12.2154 9.10058 11.6713 8.54965 11.0244 8.49943ZM9.62568 9.249V10.2512H8.58977V9.2505H7.81246L9.10772 7.99871L10.4022 9.2505L9.62568 9.249Z" fill="#2871BD"/>
</g>
<defs>
<clipPath id="clip0_1200_2678">
<rect width="18.0353" height="17.5004" fill="white"/>
</clipPath>
</defs>
</svg>
